<svg width="187" height="207" viewBox="0 0 187 207" fill="none" xmlns="http://www.w3.org/2000/svg">
<rect width="187" height="207" fill="#278D68"/>
<path d="M80.0994 102.5H78.7784C78.7003 102.12 78.5636 101.786 78.3683 101.499C78.1765 101.211 77.9421 100.969 77.6651 100.774C77.3917 100.575 77.0881 100.426 76.7543 100.327C76.4205 100.227 76.0724 100.178 75.7102 100.178C75.0497 100.178 74.4513 100.344 73.9151 100.678C73.3825 101.012 72.9581 101.504 72.642 102.154C72.3295 102.804 72.1733 103.601 72.1733 104.545C72.1733 105.49 72.3295 106.287 72.642 106.937C72.9581 107.587 73.3825 108.079 73.9151 108.413C74.4513 108.746 75.0497 108.913 75.7102 108.913C76.0724 108.913 76.4205 108.864 76.7543 108.764C77.0881 108.665 77.3917 108.517 77.6651 108.322C77.9421 108.123 78.1765 107.88 78.3683 107.592C78.5636 107.301 78.7003 106.967 78.7784 106.591H80.0994C80 107.148 79.8189 107.647 79.5561 108.088C79.2933 108.528 78.9666 108.903 78.576 109.212C78.1854 109.517 77.7468 109.75 77.2603 109.909C76.7773 110.069 76.2607 110.149 75.7102 110.149C74.7798 110.149 73.9524 109.922 73.228 109.467C72.5036 109.013 71.9336 108.366 71.5181 107.528C71.1026 106.69 70.8949 105.696 70.8949 104.545C70.8949 103.395 71.1026 102.401 71.5181 101.562C71.9336 100.724 72.5036 100.078 73.228 99.6236C73.9524 99.169 74.7798 98.9418 75.7102 98.9418C76.2607 98.9418 76.7773 99.0217 77.2603 99.1815C77.7468 99.3413 78.1854 99.5756 78.576 99.8846C78.9666 100.19 79.2933 100.563 79.5561 101.003C79.8189 101.44 80 101.939 80.0994 102.5ZM82.6816 110H81.2966L85.3023 99.0909H86.6659L90.6716 110H89.2867L86.0267 100.817H85.9415L82.6816 110ZM83.1929 105.739H88.7753V106.911H83.1929V105.739ZM92.3708 99.0909H93.9475L97.6549 108.146H97.7828L101.49 99.0909H103.067V110H101.831V101.712H101.725L98.3154 110H97.1222L93.7132 101.712H93.6066V110H92.3708V99.0909ZM107.037 99.0909V110H105.716V99.0909H107.037ZM115.651 101.818C115.587 101.278 115.328 100.859 114.873 100.561C114.419 100.263 113.861 100.114 113.201 100.114C112.718 100.114 112.295 100.192 111.933 100.348C111.574 100.504 111.294 100.719 111.092 100.993C110.893 101.266 110.793 101.577 110.793 101.925C110.793 102.216 110.862 102.466 111.001 102.676C111.143 102.882 111.324 103.054 111.544 103.192C111.764 103.327 111.995 103.439 112.237 103.528C112.478 103.613 112.7 103.683 112.903 103.736L114.011 104.034C114.295 104.109 114.611 104.212 114.959 104.343C115.31 104.474 115.646 104.654 115.965 104.881C116.289 105.105 116.555 105.392 116.764 105.744C116.974 106.096 117.079 106.527 117.079 107.038C117.079 107.628 116.924 108.161 116.615 108.636C116.31 109.112 115.862 109.49 115.273 109.771C114.687 110.051 113.975 110.192 113.137 110.192C112.356 110.192 111.679 110.066 111.108 109.814C110.539 109.561 110.092 109.21 109.765 108.759C109.442 108.308 109.259 107.784 109.217 107.188H110.58C110.616 107.599 110.754 107.94 110.996 108.21C111.241 108.477 111.55 108.675 111.922 108.807C112.299 108.935 112.704 108.999 113.137 108.999C113.641 108.999 114.094 108.917 114.495 108.754C114.897 108.587 115.214 108.356 115.449 108.061C115.683 107.763 115.8 107.415 115.8 107.017C115.8 106.655 115.699 106.36 115.497 106.133C115.294 105.906 115.028 105.721 114.698 105.579C114.367 105.437 114.011 105.312 113.627 105.206L112.285 104.822C111.432 104.577 110.758 104.228 110.261 103.773C109.763 103.319 109.515 102.724 109.515 101.989C109.515 101.378 109.68 100.845 110.01 100.391C110.344 99.9325 110.791 99.5774 111.353 99.3253C111.917 99.0696 112.547 98.9418 113.244 98.9418C113.947 98.9418 114.572 99.0678 115.119 99.32C115.665 99.5685 116.099 99.9094 116.418 100.343C116.741 100.776 116.912 101.268 116.93 101.818H115.651ZM119.698 110H118.313L122.319 99.0909H123.683L127.688 110H126.303L123.043 100.817H122.958L119.698 110ZM120.21 105.739H125.792V106.911H120.21V105.739Z" fill="white"/>
</svg>
